<?xml version="1.0" encoding="UTF-8"?>
<svg width="34px" height="40px" viewBox="0 0 34 40" version="1.1" xmlns="http://www.w3.org/2000/svg" xmlns:xlink="http://www.w3.org/1999/xlink">
    <title>Combined Shape@1x</title>
    <g id="Widgets" stroke="none" stroke-width="1" fill="none" fill-rule="evenodd">
        <path d="M21.875,1.27897692e-13 C23.6009115,1.27897692e-13 25,1.39908854 25,3.125 L25,6.666 L30.875,6.66666667 C32.6009115,6.66666667 34,8.06575521 34,9.79166667 L34,40 L21.5,32.7083333 L9,40 L9,28.083 L0,33.3333333 L0,3.125 C0,1.39908854 1.39908854,1.27897692e-13 3.125,1.27897692e-13 L21.875,1.27897692e-13 Z M30.875,8.75 L12.125,8.75 C11.5496818,8.75 11.0833333,9.21634844 11.0833333,9.79166667 L11.0833333,36.3729167 L20.4502687,30.908794 L21.5,30.2964507 L22.5497313,30.908794 L31.9166667,36.3729167 L31.9166667,9.79166667 C31.9166667,9.28027268 31.5481938,8.85497829 31.0622466,8.76678193 L30.875,8.75 Z" id="Combined-Shape" fill="#B8BBBE"></path>
    </g>
</svg>