<svg version="1.1" xmlns="http://www.w3.org/2000/svg" viewBox="0 0 1325.968601953415 1341.7792174627207" width="1325.968601953415" height="1341.7792174627207">
  <!-- svg-source:excalidraw -->
  
  <defs>
    <style class="style-fonts">
      @font-face {
        font-family: "Virgil";
        src: url("https://excalidraw.com/Virgil.woff2");
      }
      @font-face {
        font-family: "Cascadia";
        src: url("https://excalidraw.com/Cascadia.woff2");
      }
    </style>
  </defs>
  <rect x="0" y="0" width="1325.968601953415" height="1341.7792174627207" fill="#ffffff"></rect><g mask="url(#mask-Y4hnvIMNdKni4KYZ7q2BR)" stroke-linecap="round"><g transform="translate(267.74479166666674 10.268676788117773) rotate(0 1.6298891233988115 87.80770868092594)"><path d="M-0.89 0.51 C-0.72 29.84, 1.06 147.01, 1.77 175.88 M0.85 -0.27 C1.35 28.77, 3.77 145.26, 4.15 174.39" stroke="#1e1e1e" stroke-width="1" fill="none"></path></g><g transform="translate(267.74479166666674 10.268676788117773) rotate(0 1.6298891233988115 87.80770868092594)"><path d="M-5.75 145.32 C-0.72 158.27, -0.41 166.16, 2.77 176.15 M-7.47 145.86 C-4.95 151.51, -1.86 157.87, 4.63 173.98" stroke="#1e1e1e" stroke-width="1" fill="none"></path></g><g transform="translate(267.74479166666674 10.268676788117773) rotate(0 1.6298891233988115 87.80770868092594)"><path d="M14.76 144.97 C12.34 157.89, 5.19 165.91, 2.77 176.15 M13.05 145.5 C11.11 151.24, 9.73 157.68, 4.63 173.98" stroke="#1e1e1e" stroke-width="1" fill="none"></path></g></g><mask id="mask-Y4hnvIMNdKni4KYZ7q2BR"><rect x="0" y="0" fill="#fff" width="370.1488902190688" height="284.9543168504873"></rect><rect x="181.07184094286777" y="37.6114968193026" fill="#000" width="175.75" height="120" opacity="1"></rect></mask><g transform="translate(181.07184094286777 37.6114968193026) rotate(0 88.30283984719779 60.46488864974111)"><text x="87.875" y="0" font-family="Cascadia, Segoe UI Emoji" font-size="20px" fill="#1e1e1e" text-anchor="middle" style="white-space: pre;" direction="ltr" dominant-baseline="text-before-edge">New permission </text><text x="87.875" y="24" font-family="Cascadia, Segoe UI Emoji" font-size="20px" fill="#1e1e1e" text-anchor="middle" style="white-space: pre;" direction="ltr" dominant-baseline="text-before-edge">needs to be </text><text x="87.875" y="48" font-family="Cascadia, Segoe UI Emoji" font-size="20px" fill="#1e1e1e" text-anchor="middle" style="white-space: pre;" direction="ltr" dominant-baseline="text-before-edge">checked </text><text x="87.875" y="72" font-family="Cascadia, Segoe UI Emoji" font-size="20px" fill="#1e1e1e" text-anchor="middle" style="white-space: pre;" direction="ltr" dominant-baseline="text-before-edge">(`hasAccess` </text><text x="87.875" y="96" font-family="Cascadia, Segoe UI Emoji" font-size="20px" fill="#1e1e1e" text-anchor="middle" style="white-space: pre;" direction="ltr" dominant-baseline="text-before-edge">called)</text></g><g stroke-linecap="round" transform="translate(100.74479166666674 198.26867678811777) rotate(0 169 85)"><path d="M212.5 21.5 M212.5 21.5 C233.44 33.29, 248.61 40.72, 295.5 64.5 M212.5 21.5 C232.5 32.18, 250.37 41.53, 295.5 64.5 M295.5 64.5 C336.39 84.07, 337.88 84.59, 295.5 107.5 M295.5 64.5 C339.1 85.06, 336.42 88.08, 295.5 107.5 M295.5 107.5 C279.81 117.36, 263.18 124.62, 212.5 148.5 M295.5 107.5 C269.59 119.53, 244.68 131.58, 212.5 148.5 M212.5 148.5 C169.04 171.13, 171.43 170.6, 127.5 148.5 M212.5 148.5 C171.45 167.77, 171.56 168.5, 127.5 148.5 M127.5 148.5 C105.26 138.05, 84.17 128.28, 42.5 107.5 M127.5 148.5 C108.02 139.18, 87.76 129.14, 42.5 107.5 M42.5 107.5 C1.48 86.73, -1.55 84.76, 42.5 64.5 M42.5 107.5 C-1.64 87.37, -0.8 86.71, 42.5 64.5 M42.5 64.5 C73.55 48.42, 100.79 32.76, 127.5 21.5 M42.5 64.5 C59.55 55.72, 77.23 45.71, 127.5 21.5 M127.5 21.5 C168.07 -1.28, 170.34 0.68, 212.5 21.5 M127.5 21.5 C168.01 2.3, 168.55 1.01, 212.5 21.5" stroke="#1e1e1e" stroke-width="1" fill="none"></path></g><g transform="translate(193.5864588419597 245.76867678811777) rotate(0 76.15833282470703 36)"><text x="76.15833282470703" y="0" font-family="Cascadia, Segoe UI Emoji" font-size="20px" fill="#1e1e1e" text-anchor="middle" style="white-space: pre;" direction="ltr" dominant-baseline="text-before-edge">User has a </text><text x="76.15833282470703" y="24" font-family="Cascadia, Segoe UI Emoji" font-size="20px" fill="#1e1e1e" text-anchor="middle" style="white-space: pre;" direction="ltr" dominant-baseline="text-before-edge">wildcard (*) </text><text x="76.15833282470703" y="48" font-family="Cascadia, Segoe UI Emoji" font-size="20px" fill="#1e1e1e" text-anchor="middle" style="white-space: pre;" direction="ltr" dominant-baseline="text-before-edge">permission?</text></g><g transform="translate(714.9388464064825 83.9829625024035) rotate(0 205.0416717529297 12)"><text x="205.0416717529297" y="0" font-family="Cascadia, Segoe UI Emoji" font-size="20px" fill="#1971c2" text-anchor="middle" style="white-space: pre;" direction="ltr" dominant-baseline="text-before-edge">application:resource_type:operation</text></g><g mask="url(#mask-hzQvKFdE161ucUQMIZHvM)" stroke-linecap="round"><g transform="translate(447.31391511121797 277.35852927691883) rotate(0 157.01080298750833 -0.2783726170536056)"><path d="M-0.4 -0.83 C51.84 -0.99, 262.04 -1.91, 314.42 -1.91 M1.59 1.35 C53.68 1.4, 262.06 -0.75, 314.03 -0.89" stroke="#1e1e1e" stroke-width="1" fill="none"></path></g><g transform="translate(447.31391511121797 277.35852927691883) rotate(0 157.01080298750833 -0.2783726170536056)"><path d="M284.53 11.32 C295.07 6.56, 307.57 -0.04, 312.98 -2.51 M286.39 9.16 C290.95 8.54, 296.39 5.19, 313.98 -0.22" stroke="#1e1e1e" stroke-width="1" fill="none"></path></g><g transform="translate(447.31391511121797 277.35852927691883) rotate(0 157.01080298750833 -0.2783726170536056)"><path d="M284.39 -9.2 C294.82 -6.14, 307.37 -4.91, 312.98 -2.51 M286.25 -11.36 C290.83 -7.8, 296.3 -6.98, 313.98 -0.22" stroke="#1e1e1e" stroke-width="1" fill="none"></path></g></g><mask id="mask-hzQvKFdE161ucUQMIZHvM"><rect x="0" y="0" fill="#fff" width="860.6800595238096" height="378.28088788391136"></rect><rect x="586.4219865545745" y="264.8973499734226" fill="#000" width="35.150001525878906" height="24" opacity="1"></rect></mask><g transform="translate(586.4219865545747 264.8973499734226) rotate(0 17.902731544151834 12.182806686442632)"><text x="17.575000762939453" y="0" font-family="Cascadia, Segoe UI Emoji" font-size="20px" fill="#1e1e1e" text-anchor="middle" style="white-space: pre;" direction="ltr" dominant-baseline="text-before-edge">Yes</text></g><g stroke-linecap="round" transform="translate(773.6800595238094 244.20617678811777) rotate(0 133.5 31)"><path d="M15.5 0 M15.5 0 C77.05 -1, 141.46 -3.19, 251.5 0 M15.5 0 C73.87 1.32, 132.74 1.57, 251.5 0 M251.5 0 C260.46 1.81, 265.07 4.52, 267 15.5 M251.5 0 C261.73 1.54, 268.78 7.01, 267 15.5 M267 15.5 C265.14 23.88, 267.9 34.08, 267 46.5 M267 15.5 C267.56 25.57, 267.48 34.07, 267 46.5 M267 46.5 C268.36 55.53, 260.97 61.18, 251.5 62 M267 46.5 C266.86 56.15, 261.97 62.15, 251.5 62 M251.5 62 C169.34 61.48, 90.78 60.98, 15.5 62 M251.5 62 C169.64 62.2, 88.49 63.22, 15.5 62 M15.5 62 C4.47 62.62, 1.08 56.54, 0 46.5 M15.5 62 C3.68 63.02, -1.61 54.56, 0 46.5 M0 46.5 C1.34 38.6, 1.4 32.35, 0 15.5 M0 46.5 C0.47 39.3, -0.57 32.43, 0 15.5 M0 15.5 C-1.26 6.05, 3.21 -1.84, 15.5 0 M0 15.5 C-0.83 6.33, 4.73 0.67, 15.5 0" stroke="#2f9e44" stroke-width="1" fill="none"></path></g><g transform="translate(836.8800564720516 263.2061767881178) rotate(0 70.30000305175781 12)"><text x="70.30000305175781" y="0" font-family="Cascadia, Segoe UI Emoji" font-size="20px" fill="#2f9e44" text-anchor="middle" style="white-space: pre;" direction="ltr" dominant-baseline="text-before-edge">Allow access</text></g><g mask="url(#mask-o_Fvv_yeJ1Uk9x5RSl_qy)" stroke-linecap="round"><g transform="translate(270.55632668104226 383.0150208645922) rotate(0 1.7915838263359092 36.6204648263102)"><path d="M0.53 0.07 C0.7 12.4, 1.8 60.91, 2.06 72.97 M-0.65 -0.93 C-0.21 11.63, 3.37 61.83, 4.23 74.18" stroke="#1e1e1e" stroke-width="1" fill="none"></path></g><g transform="translate(270.55632668104226 383.0150208645922) rotate(0 1.7915838263359092 36.6204648263102)"><path d="M-7.85 45.05 C-4.51 55.73, -0.66 67.86, 2.82 75.13 M-8.94 46.45 C-5.04 54.43, -1.06 61.67, 4.46 74.19" stroke="#1e1e1e" stroke-width="1" fill="none"></path></g><g transform="translate(270.55632668104226 383.0150208645922) rotate(0 1.7915838263359092 36.6204648263102)"><path d="M12.62 43.61 C8 54.95, 3.91 67.63, 2.82 75.13 M11.53 45.01 C10.11 53.56, 8.79 61.17, 4.46 74.19" stroke="#1e1e1e" stroke-width="1" fill="none"></path></g></g><mask id="mask-o_Fvv_yeJ1Uk9x5RSl_qy"><rect x="0" y="0" fill="#fff" width="373.65333155874146" height="587.0150208645922"></rect><rect x="260.3881628982733" y="407.81383033928967" fill="#000" width="23.433332443237305" height="24" opacity="1"></rect></mask><g transform="translate(260.3881628982733 407.81383033928967) rotate(0 11.959747609104852 11.821655351612733)"><text x="11.716666221618652" y="0" font-family="Cascadia, Segoe UI Emoji" font-size="20px" fill="#1e1e1e" text-anchor="middle" style="white-space: pre;" direction="ltr" dominant-baseline="text-before-edge">No</text></g><g stroke-linecap="round" transform="translate(10 469.2608642881178) rotate(0 261.5 154)"><path d="M327.5 38.75 M327.5 38.75 C371.26 64.94, 415.14 93.12, 457.5 116.25 M327.5 38.75 C356.99 57.95, 386.52 74.5, 457.5 116.25 M457.5 116.25 C522.91 156.34, 524.55 156.61, 457.5 193.75 M457.5 116.25 C523.53 155.03, 522.47 152.86, 457.5 193.75 M457.5 193.75 C429.79 208.31, 402.26 227.17, 327.5 269.25 M457.5 193.75 C415.75 216.76, 371.72 241.92, 327.5 269.25 M327.5 269.25 C261.88 307.4, 262.12 308.13, 196.5 269.25 M327.5 269.25 C263 306.5, 260.86 306.51, 196.5 269.25 M196.5 269.25 C153.84 245.98, 110.78 218.22, 65.5 193.75 M196.5 269.25 C165.5 252.37, 135.2 233.93, 65.5 193.75 M65.5 193.75 C-1.3 155.88, -1.4 153.02, 65.5 116.25 M65.5 193.75 C-2.11 152.85, -1.07 156.21, 65.5 116.25 M65.5 116.25 C93.77 97.47, 123.47 82.08, 196.5 38.75 M65.5 116.25 C109.28 89.5, 152.68 62.26, 196.5 38.75 M196.5 38.75 C261.28 1.01, 261.62 0.58, 327.5 38.75 M196.5 38.75 C261.58 -0.29, 260.38 -1.42, 327.5 38.75" stroke="#1e1e1e" stroke-width="1" fill="none"></path></g><g transform="translate(148.7249984741211 551.2608642881178) rotate(0 123.0250015258789 72)"><text x="123.0250015258789" y="0" font-family="Cascadia, Segoe UI Emoji" font-size="20px" fill="#1e1e1e" text-anchor="middle" style="white-space: pre;" direction="ltr" dominant-baseline="text-before-edge">User has a matching </text><text x="123.0250015258789" y="24" font-family="Cascadia, Segoe UI Emoji" font-size="20px" fill="#1e1e1e" text-anchor="middle" style="white-space: pre;" direction="ltr" dominant-baseline="text-before-edge">permission available </text><text x="123.0250015258789" y="48" font-family="Cascadia, Segoe UI Emoji" font-size="20px" fill="#1e1e1e" text-anchor="middle" style="white-space: pre;" direction="ltr" dominant-baseline="text-before-edge">(application, </text><text x="123.0250015258789" y="72" font-family="Cascadia, Segoe UI Emoji" font-size="20px" fill="#1e1e1e" text-anchor="middle" style="white-space: pre;" direction="ltr" dominant-baseline="text-before-edge">resource_type and </text><text x="123.0250015258789" y="96" font-family="Cascadia, Segoe UI Emoji" font-size="20px" fill="#1e1e1e" text-anchor="middle" style="white-space: pre;" direction="ltr" dominant-baseline="text-before-edge">operation are </text><text x="123.0250015258789" y="120" font-family="Cascadia, Segoe UI Emoji" font-size="20px" fill="#1e1e1e" text-anchor="middle" style="white-space: pre;" direction="ltr" dominant-baseline="text-before-edge">identical)?</text></g><g stroke-linecap="round" transform="translate(131.2326388888887 902.0290934547844) rotate(0 133.5 31)"><path d="M15.5 0 M15.5 0 C64.33 1.5, 115.22 2.4, 251.5 0 M15.5 0 C75.88 -2.07, 137.84 -1.23, 251.5 0 M251.5 0 C263.38 1.61, 267.46 5.19, 267 15.5 M251.5 0 C261.3 -2.14, 265.12 6.2, 267 15.5 M267 15.5 C268.18 23.97, 267.65 30.86, 267 46.5 M267 15.5 C266.78 21.39, 267.15 27.8, 267 46.5 M267 46.5 C267.12 56.96, 262.7 60.7, 251.5 62 M267 46.5 C265.86 55.35, 262.47 63.97, 251.5 62 M251.5 62 C181.8 62.16, 109.85 62.27, 15.5 62 M251.5 62 C167.07 62.49, 81.18 62.98, 15.5 62 M15.5 62 C3.77 60.02, -1.83 54.97, 0 46.5 M15.5 62 C4.1 63.21, -1.66 58.11, 0 46.5 M0 46.5 C-1.11 39.44, 0.86 29.98, 0 15.5 M0 46.5 C-0.78 33.18, -0.16 22.21, 0 15.5 M0 15.5 C-0.38 5.75, 4.8 -0.25, 15.5 0 M0 15.5 C-1.62 3.75, 4.93 -1.2, 15.5 0" stroke="#e03131" stroke-width="1" fill="none"></path></g><g transform="translate(200.29097323947462 921.0290934547844) rotate(0 64.44166564941406 12)"><text x="64.44166564941406" y="0" font-family="Cascadia, Segoe UI Emoji" font-size="20px" fill="#e03131" text-anchor="middle" style="white-space: pre;" direction="ltr" dominant-baseline="text-before-edge">Deny access</text></g><g mask="url(#mask-OS74Qi7XQmQiBQx6kUH7u)" stroke-linecap="round"><g transform="translate(266.0697432083914 797.533003689752) rotate(0 0.5251700801609331 44.99741868415347)"><path d="M-0.07 -0.85 C0.53 14.27, 2.4 74.23, 2.62 89.56 M-1.57 1.32 C-0.99 16.7, 1.1 76.17, 1.97 90.84" stroke="#1e1e1e" stroke-width="1" fill="none"></path></g><g transform="translate(266.0697432083914 797.533003689752) rotate(0 0.5251700801609331 44.99741868415347)"><path d="M-10.97 64.1 C-8.11 67.86, -2.96 73.37, 1.32 90.75 M-9.33 63.16 C-5.35 72.28, -1.71 83.82, 1.24 91" stroke="#1e1e1e" stroke-width="1" fill="none"></path></g><g transform="translate(266.0697432083914 797.533003689752) rotate(0 0.5251700801609331 44.99741868415347)"><path d="M9.53 63.17 C7.88 67.12, 8.54 72.84, 1.32 90.75 M11.17 62.23 C7.64 71.86, 3.76 83.74, 1.24 91" stroke="#1e1e1e" stroke-width="1" fill="none"></path></g></g><mask id="mask-OS74Qi7XQmQiBQx6kUH7u"><rect x="0" y="0" fill="#fff" width="368.1126633504166" height="987.5841669147856"></rect><rect x="255.37453705778535" y="830.5585853022689" fill="#000" width="23.433332443237305" height="24" opacity="1"></rect></mask><g transform="translate(255.37453705778535 830.5585853022689) rotate(0 11.220376230766988 11.971837071636713)"><text x="11.716666221618652" y="0" font-family="Cascadia, Segoe UI Emoji" font-size="20px" fill="#1e1e1e" text-anchor="middle" style="white-space: pre;" direction="ltr" dominant-baseline="text-before-edge">No</text></g><g mask="url(#mask-4evuQ0uIh39G7EPLEjNTd)" stroke-linecap="round"><g transform="translate(531.1400347378099 620.2698526015139) rotate(0 72.23240360899649 -3.1559343210747066)"><path d="M0.57 -0.49 C24.38 -1.06, 119.13 -3.39, 142.77 -4.27 M-0.58 -1.79 C23.61 -2.6, 120.83 -5.35, 145.05 -5.82" stroke="#1e1e1e" stroke-width="1" fill="none"></path></g><g transform="translate(531.1400347378099 620.2698526015139) rotate(0 72.23240360899649 -3.1559343210747066)"><path d="M116.31 3.76 C127.22 -0.15, 132.98 -1.54, 146.38 -4.28 M116.89 4.2 C126.9 1.41, 137.61 -3.05, 144.57 -5.26" stroke="#1e1e1e" stroke-width="1" fill="none"></path></g><g transform="translate(531.1400347378099 620.2698526015139) rotate(0 72.23240360899649 -3.1559343210747066)"><path d="M115.8 -16.76 C126.72 -14.64, 132.63 -9.99, 146.38 -4.28 M116.38 -16.31 C126.63 -11.3, 137.54 -7.96, 144.57 -5.26" stroke="#1e1e1e" stroke-width="1" fill="none"></path></g></g><mask id="mask-4evuQ0uIh39G7EPLEjNTd"><rect x="0" y="0" fill="#fff" width="774.7304344684776" height="725.6276914499426"></rect><rect x="585.3602338402045" y="605.5909331772995" fill="#000" width="35.150001525878906" height="24" opacity="1"></rect></mask><g transform="translate(585.3602338402045 605.5909331772995) rotate(0 18.012204506602075 11.522985103139657)"><text x="17.575000762939453" y="0" font-family="Cascadia, Segoe UI Emoji" font-size="20px" fill="#1e1e1e" text-anchor="middle" style="white-space: pre;" direction="ltr" dominant-baseline="text-before-edge">Yes</text></g><g stroke-linecap="round" transform="translate(680.1842757936511 478.58378095478406) rotate(0 239.9999999999999 135)"><path d="M301.25 34 M301.25 34 C344 56.54, 382.76 82.03, 419.75 102 M301.25 34 C345.47 58, 388.47 82, 419.75 102 M419.75 102 C478.36 136.9, 478.55 136.3, 419.75 170 M419.75 102 C478.89 137.3, 481.64 136.69, 419.75 170 M419.75 170 C374.8 193.89, 332.29 218.59, 301.25 236 M419.75 170 C388.22 187.25, 355.29 205.08, 301.25 236 M301.25 236 C241.55 271.71, 240.96 270.88, 180.75 236 M301.25 236 C242.7 270.84, 239.21 268.58, 180.75 236 M180.75 236 C153.41 221.57, 124.94 204.09, 60.25 170 M180.75 236 C138.83 211.16, 97.81 189.91, 60.25 170 M60.25 170 C-1.44 137.11, -1.23 134.86, 60.25 102 M60.25 170 C-2.21 134.53, 0.39 136.78, 60.25 102 M60.25 102 C86.19 86.28, 109.22 72.99, 180.75 34 M60.25 102 C102.42 77.7, 144.12 53.38, 180.75 34 M180.75 34 C240.79 -1.04, 242.87 0.4, 301.25 34 M180.75 34 C241.13 1.88, 243 1.51, 301.25 34" stroke="#1e1e1e" stroke-width="1" fill="none"></path></g><g transform="translate(808.8759414430651 551.0837809547841) rotate(0 111.30833435058594 60)"><text x="111.30833435058594" y="0" font-family="Cascadia, Segoe UI Emoji" font-size="20px" fill="#1e1e1e" text-anchor="middle" style="white-space: pre;" direction="ltr" dominant-baseline="text-before-edge">Does the matched </text><text x="111.30833435058594" y="24" font-family="Cascadia, Segoe UI Emoji" font-size="20px" fill="#1e1e1e" text-anchor="middle" style="white-space: pre;" direction="ltr" dominant-baseline="text-before-edge">available </text><text x="111.30833435058594" y="48" font-family="Cascadia, Segoe UI Emoji" font-size="20px" fill="#1e1e1e" text-anchor="middle" style="white-space: pre;" direction="ltr" dominant-baseline="text-before-edge">permission have </text><text x="111.30833435058594" y="72" font-family="Cascadia, Segoe UI Emoji" font-size="20px" fill="#1e1e1e" text-anchor="middle" style="white-space: pre;" direction="ltr" dominant-baseline="text-before-edge">resource definition</text><text x="111.30833435058594" y="96" font-family="Cascadia, Segoe UI Emoji" font-size="20px" fill="#1e1e1e" text-anchor="middle" style="white-space: pre;" direction="ltr" dominant-baseline="text-before-edge">(RD) defined?</text></g><g mask="url(#mask-hM1KwbVDoby9EA1iRbyy_)" stroke-linecap="round"><g transform="translate(920.3859804409949 468.7560123836761) rotate(0 -1.356411806901633 -74.45459630859465)"><path d="M-1.16 -0.39 C-1.38 -12.34, -2.27 -46.23, -2.16 -70.62 C-2.05 -95, -0.65 -133.85, -0.48 -146.68 M0.44 -1.64 C0.12 -13.41, -2.94 -47.84, -3.14 -72.32 C-3.34 -96.8, -1.16 -136.15, -0.76 -148.52" stroke="#1e1e1e" stroke-width="1" fill="none"></path></g><g transform="translate(920.3859804409949 468.7560123836761) rotate(0 -1.356411806901633 -74.45459630859465)"><path d="M7.66 -120.01 C7.29 -125.09, 5.46 -132.79, -0.73 -148.98 M7.58 -119.77 C6.19 -125.24, 5.5 -131.42, -0.13 -149.49" stroke="#1e1e1e" stroke-width="1" fill="none"></path></g><g transform="translate(920.3859804409949 468.7560123836761) rotate(0 -1.356411806901633 -74.45459630859465)"><path d="M-12.84 -120.88 C-8.46 -125.55, -5.54 -133.06, -0.73 -148.98 M-12.92 -120.63 C-10.08 -126.01, -6.52 -132.02, -0.13 -149.49" stroke="#1e1e1e" stroke-width="1" fill="none"></path></g></g><mask id="mask-hM1KwbVDoby9EA1iRbyy_"><rect x="0" y="0" fill="#fff" width="1022.4924469931007" height="716.4048063125676"></rect><rect x="906.5628476672707" y="385.33874127224493" fill="#000" width="23.433332443237305" height="24" opacity="1"></rect></mask><g transform="translate(906.5628476672703 385.33874127224493) rotate(0 12.466720966822777 8.962674802836503)"><text x="11.716666221618652" y="0" font-family="Cascadia, Segoe UI Emoji" font-size="20px" fill="#1e1e1e" text-anchor="middle" style="white-space: pre;" direction="ltr" dominant-baseline="text-before-edge">No</text></g><g mask="url(#mask-FN4PuN2OICl83Cf2zWmZZ)" stroke-linecap="round"><g transform="translate(917.8100642908751 748.3956344688905) rotate(0 -0.7855191000433024 42.30875673720675)"><path d="M-0.05 0.8 C0.06 14.94, -0.28 70.66, -0.45 84.44 M-1.54 0.18 C-1.4 14.03, -0.88 68.72, -0.92 82.82" stroke="#1e1e1e" stroke-width="1" fill="none"></path></g><g transform="translate(917.8100642908751 748.3956344688905) rotate(0 -0.7855191000433024 42.30875673720675)"><path d="M-9.96 56.23 C-7.67 60.88, -7.14 65.68, -2.77 81.19 M-11.78 55.25 C-7.21 64.67, -3.71 73.11, -0.24 82.17" stroke="#1e1e1e" stroke-width="1" fill="none"></path></g><g transform="translate(917.8100642908751 748.3956344688905) rotate(0 -0.7855191000433024 42.30875673720675)"><path d="M10.56 56.13 C8.67 60.79, 5.03 65.62, -2.77 81.19 M8.74 55.16 C6.23 64.64, 2.65 73.11, -0.24 82.17" stroke="#1e1e1e" stroke-width="1" fill="none"></path></g></g><mask id="mask-FN4PuN2OICl83Cf2zWmZZ"><rect x="0" y="0" fill="#fff" width="1019.1916304618721" height="931.8724128698979"></rect><rect x="899.544280442437" y="778.1340236693942" fill="#000" width="35.150001525878906" height="24" opacity="1"></rect></mask><g transform="translate(899.5442804424374 778.1340236693941) rotate(0 17.480264748394575 12.570367536703117)"><text x="17.575000762939453" y="0" font-family="Cascadia, Segoe UI Emoji" font-size="20px" fill="#1e1e1e" text-anchor="middle" style="white-space: pre;" direction="ltr" dominant-baseline="text-before-edge">Yes</text></g><g stroke-linecap="round" transform="translate(678.6912202380952 831.2573920658956) rotate(0 241.5 110)"><path d="M302.5 27.75 M302.5 27.75 C339.94 43.68, 373.82 59.16, 422.5 83.25 M302.5 27.75 C326.17 38.86, 351.26 50.76, 422.5 83.25 M422.5 83.25 C484.43 111.6, 484.26 109.06, 422.5 138.75 M422.5 83.25 C484.56 109.5, 482 110.06, 422.5 138.75 M422.5 138.75 C387.18 155.42, 350.46 169.3, 302.5 192.25 M422.5 138.75 C394.38 152.81, 366.89 165.33, 302.5 192.25 M302.5 192.25 C240.45 218.76, 240.57 221.19, 181.5 192.25 M302.5 192.25 C241.2 220.71, 243.24 219.66, 181.5 192.25 M181.5 192.25 C150.83 176.99, 122.48 165.31, 60.5 138.75 M181.5 192.25 C138.61 173.49, 95.61 154.56, 60.5 138.75 M60.5 138.75 C0.34 111.68, -1.73 113, 60.5 83.25 M60.5 138.75 C-1.45 112.01, -2.25 108.89, 60.5 83.25 M60.5 83.25 C92.75 68.46, 123.87 52.76, 181.5 27.75 M60.5 83.25 C90.33 70.86, 118.29 58.24, 181.5 27.75 M181.5 27.75 C243.74 1.32, 241.27 1.94, 302.5 27.75 M181.5 27.75 C244.07 -0.57, 242.36 -0.92, 302.5 27.75" stroke="#1e1e1e" stroke-width="1" fill="none"></path></g><g transform="translate(809.1328858875092 891.2573920658956) rotate(0 111.30833435058594 36)"><text x="111.30833435058594" y="0" font-family="Cascadia, Segoe UI Emoji" font-size="20px" fill="#1e1e1e" text-anchor="middle" style="white-space: pre;" direction="ltr" dominant-baseline="text-before-edge">Does the requested </text><text x="111.30833435058594" y="24" font-family="Cascadia, Segoe UI Emoji" font-size="20px" fill="#1e1e1e" text-anchor="middle" style="white-space: pre;" direction="ltr" dominant-baseline="text-before-edge">permission have RD </text><text x="111.30833435058594" y="48" font-family="Cascadia, Segoe UI Emoji" font-size="20px" fill="#1e1e1e" text-anchor="middle" style="white-space: pre;" direction="ltr" dominant-baseline="text-before-edge">defined?</text></g><g mask="url(#mask--WXpAZSZ3Ud5n8sJZPJJ2)" stroke-linecap="round"><g transform="translate(690.3272028357762 934.8585101007516) rotate(0 -141.0949123219566 -0.33262388619095873)"><path d="M0.28 0.01 C-46.77 -0.24, -234.31 -0.75, -281.37 -0.57 M-1.04 -1.02 C-48.35 -1.26, -236.02 0.37, -282.47 0.38" stroke="#1e1e1e" stroke-width="1" fill="none"></path></g><g transform="translate(690.3272028357762 934.8585101007516) rotate(0 -141.0949123219566 -0.33262388619095873)"><path d="M-254.3 -10.48 C-266.72 -7.67, -274.58 -3.56, -282.16 -0.58 M-253.7 -10.98 C-263.61 -6.88, -274.76 -2.93, -282.53 0.08" stroke="#1e1e1e" stroke-width="1" fill="none"></path></g><g transform="translate(690.3272028357762 934.8585101007516) rotate(0 -141.0949123219566 -0.33262388619095873)"><path d="M-254.2 10.04 C-266.82 5.11, -274.72 1.48, -282.16 -0.58 M-253.6 9.54 C-263.69 6.33, -274.87 2.96, -282.53 0.08" stroke="#1e1e1e" stroke-width="1" fill="none"></path></g></g><mask id="mask--WXpAZSZ3Ud5n8sJZPJJ2"><rect x="0" y="0" fill="#fff" width="1071.4217667826638" height="1035.403267465047"></rect><rect x="538.0632546407137" y="923.1308887828991" fill="#000" width="23.433332443237305" height="24" opacity="1"></rect></mask><g transform="translate(538.0632546407139 923.1308887828992) rotate(0 11.169035873105713 11.394997431661352)"><text x="11.716666221618652" y="0" font-family="Cascadia, Segoe UI Emoji" font-size="20px" fill="#1e1e1e" text-anchor="middle" style="white-space: pre;" direction="ltr" dominant-baseline="text-before-edge">No</text></g><g mask="url(#mask-wHLK1Jcq1fC8VD3rGIB9W)" stroke-linecap="round"><g transform="translate(920.0491446125327 1052.2472478718698) rotate(0 0.375146477840417 53.63891370577329)"><path d="M-0.28 -1.12 C-0.5 16.95, -0.93 90.2, -1.04 108.39 M1.78 0.91 C1.9 18.62, 1.2 88.46, 1.15 106.55" stroke="#1e1e1e" stroke-width="1" fill="none"></path></g><g transform="translate(920.0491446125327 1052.2472478718698) rotate(0 0.375146477840417 53.63891370577329)"><path d="M-10.78 76.66 C-4.77 86, -2.1 95.62, 2.29 107.98 M-8.24 77.64 C-5.85 87.31, -2.15 96.75, 1.21 106.62" stroke="#1e1e1e" stroke-width="1" fill="none"></path></g><g transform="translate(920.0491446125327 1052.2472478718698) rotate(0 0.375146477840417 53.63891370577329)"><path d="M9.74 76.79 C9.12 86.04, 5.16 95.61, 2.29 107.98 M12.28 77.78 C7.89 87.2, 4.82 96.59, 1.21 106.62" stroke="#1e1e1e" stroke-width="1" fill="none"></path></g></g><mask id="mask-wHLK1Jcq1fC8VD3rGIB9W"><rect x="0" y="0" fill="#fff" width="1020.1075761320328" height="1260.1021060859346"></rect><rect x="902.444928089843" y="1094.1746769789022" fill="#000" width="35.150001525878906" height="24" opacity="1"></rect></mask><g transform="translate(902.4449280898434 1094.1746769789022) rotate(0 17.97936300052993 11.71148459874098)"><text x="17.575000762939453" y="0" font-family="Cascadia, Segoe UI Emoji" font-size="20px" fill="#1e1e1e" text-anchor="middle" style="white-space: pre;" direction="ltr" dominant-baseline="text-before-edge">Yes</text></g><g stroke-linecap="round" transform="translate(681.8856646825393 1159.7792174627207) rotate(0 242.0000000000001 86)"><path d="M303.75 21.75 M303.75 21.75 C337.33 33.32, 369.81 45.85, 423.25 65.25 M303.75 21.75 C347.31 35.94, 389.97 51.76, 423.25 65.25 M423.25 65.25 C483.13 86.18, 483.88 86.4, 423.25 108.75 M423.25 65.25 C484.13 87.15, 485 85.5, 423.25 108.75 M423.25 108.75 C394.75 119.43, 363.98 131.36, 303.75 150.25 M423.25 108.75 C382.02 122.57, 342.18 136.24, 303.75 150.25 M303.75 150.25 C244.08 171.71, 241.7 172.88, 182.25 150.25 M303.75 150.25 C241.39 169.73, 240.89 169.85, 182.25 150.25 M182.25 150.25 C152.35 137.63, 119.3 126.41, 60.75 108.75 M182.25 150.25 C152.65 141.87, 124.22 131.52, 60.75 108.75 M60.75 108.75 C-1.96 85.16, -0.72 88.01, 60.75 65.25 M60.75 108.75 C-0.43 87.67, -0.42 86.71, 60.75 65.25 M60.75 65.25 C87.86 57.26, 117.2 45.51, 182.25 21.75 M60.75 65.25 C106.38 48.82, 154.01 31, 182.25 21.75 M182.25 21.75 C243.31 -0.8, 242.01 1.11, 303.75 21.75 M182.25 21.75 C243.7 -0.14, 244.91 -1.8, 303.75 21.75" stroke="#1e1e1e" stroke-width="1" fill="none"></path></g><g transform="translate(812.5773303319534 1207.7792174627207) rotate(0 111.30833435058594 36)"><text x="111.30833435058594" y="0" font-family="Cascadia, Segoe UI Emoji" font-size="20px" fill="#1e1e1e" text-anchor="middle" style="white-space: pre;" direction="ltr" dominant-baseline="text-before-edge">Does the available </text><text x="111.30833435058594" y="24" font-family="Cascadia, Segoe UI Emoji" font-size="20px" fill="#1e1e1e" text-anchor="middle" style="white-space: pre;" direction="ltr" dominant-baseline="text-before-edge">RD match the </text><text x="111.30833435058594" y="48" font-family="Cascadia, Segoe UI Emoji" font-size="20px" fill="#1e1e1e" text-anchor="middle" style="white-space: pre;" direction="ltr" dominant-baseline="text-before-edge">requested RD?</text></g><g mask="url(#mask-32pa10rUNuXsSfombcthr)" stroke-linecap="round"><g transform="translate(1197.2634736311463 1245.7792174627207) rotate(0 -19.968234435654495 -492.0421202395645)"><path d="M-0.87 0.18 C16.05 -88.77, 124.34 -369.44, 100.55 -533.16 C76.77 -696.88, -102.87 -907.03, -143.57 -982.11 M0.87 -0.77 C17.67 -90.11, 123.43 -371.01, 99.3 -534.92 C75.18 -698.84, -103.5 -909.56, -143.89 -984.27" stroke="#1e1e1e" stroke-width="1" fill="none"></path></g><g transform="translate(1197.2634736311463 1245.7792174627207) rotate(0 -19.968234435654495 -492.0421202395645)"><path d="M-119.44 -967.42 C-123.96 -969.1, -129.75 -973.15, -145.82 -982.91 M-119.8 -966.76 C-125.27 -970.68, -130.56 -975.57, -144.38 -984.91" stroke="#1e1e1e" stroke-width="1" fill="none"></path></g><g transform="translate(1197.2634736311463 1245.7792174627207) rotate(0 -19.968234435654495 -492.0421202395645)"><path d="M-136.53 -956.07 C-137.37 -960.09, -139.44 -966.62, -145.82 -982.91 M-136.89 -955.41 C-138.31 -961.92, -139.58 -969.48, -144.38 -984.91" stroke="#1e1e1e" stroke-width="1" fill="none"></path></g></g><mask id="mask-32pa10rUNuXsSfombcthr"><rect x="0" y="0" fill="#fff" width="1542.8190291867015" height="2328.2535406200673"></rect><rect x="1280.8186004275358" y="699.940675796054" fill="#000" width="35.150001525878906" height="24" opacity="1"></rect></mask><g transform="translate(1280.8186004275362 699.9406757960543) rotate(0 -103.52336123204418 53.79642142710202)"><text x="17.575000762939453" y="0" font-family="Cascadia, Segoe UI Emoji" font-size="20px" fill="#1e1e1e" text-anchor="middle" style="white-space: pre;" direction="ltr" dominant-baseline="text-before-edge">Yes</text></g><g mask="url(#mask-SeH7RnA0eE3Rzy-w5VGHm)" stroke-linecap="round"><g transform="translate(673.5057732796802 1243.8425711004131) rotate(0 -204.6332122100066 -134.91486175808456)"><path d="M-0.58 0.68 C-59.53 -5.37, -286.29 9.07, -354.56 -36.13 C-422.84 -81.33, -400.95 -231.51, -410.22 -270.51 M1.32 -0.01 C-57.63 -6.45, -286.41 6.9, -355.06 -38.06 C-423.71 -83.03, -401.52 -231.24, -410.59 -269.8" stroke="#1e1e1e" stroke-width="1" fill="none"></path></g><g transform="translate(673.5057732796802 1243.8425711004131) rotate(0 -204.6332122100066 -134.91486175808456)"><path d="M-397.76 -240.75 C-400.99 -247.26, -406.19 -253.44, -411.89 -270.67 M-398.83 -242.11 C-401.47 -250.02, -405.43 -257.17, -410.31 -268.95" stroke="#1e1e1e" stroke-width="1" fill="none"></path></g><g transform="translate(673.5057732796802 1243.8425711004131) rotate(0 -204.6332122100066 -134.91486175808456)"><path d="M-418.25 -239.7 C-416.83 -246.34, -417.36 -252.76, -411.89 -270.67 M-419.33 -241.06 C-416.65 -249.17, -415.3 -256.6, -410.31 -268.95" stroke="#1e1e1e" stroke-width="1" fill="none"></path></g></g><mask id="mask-SeH7RnA0eE3Rzy-w5VGHm"><rect x="0" y="0" fill="#fff" width="1184.4785604482493" height="1613.1899029127085"></rect><rect x="306.3718754450481" y="1195.3523821452607" fill="#000" width="23.433332443237305" height="24" opacity="1"></rect></mask><g transform="translate(306.3718754450481 1195.3523821452604) rotate(0 162.50068562462548 -86.42467280293198)"><text x="11.716666221618652" y="0" font-family="Cascadia, Segoe UI Emoji" font-size="20px" fill="#1e1e1e" text-anchor="middle" style="white-space: pre;" direction="ltr" dominant-baseline="text-before-edge">No</text></g></svg>